<?xml version="1.0" encoding="UTF-8"?>
<svg id="Layer_2" data-name="Layer 2" xmlns="http://www.w3.org/2000/svg" viewBox="0 0 1011.98 1331.89">
  <defs>
    <style>
      .cls-1 {
        fill: #fcc23d;
      }

      .cls-1, .cls-2 {
        stroke-width: 0px;
      }

      .cls-2 {
        fill: #1d1d1b;
      }
    </style>
  </defs>
  <g id="TekkenDoc_Icon_2" data-name="TekkenDoc Icon 2">
    <g>
      <path class="cls-1" d="M958.37,1324.82H53.61c-22.97,0-41.76-18.79-41.76-41.76V62.77c0-22.97,18.79-41.76,41.76-41.76h649.79l296.73,282.28v979.77c0,22.97-18.79,41.76-41.76,41.76Z"/>
      <path id="_T_2" data-name="&amp;lt;T&amp;gt; 2" class="cls-2" d="M451.03,395.05h-12.78c-162.86,0-309.17.03-318.49.15l16.77,13.97,167.8,139.79,213.41.84-214.94,561.79,67.18.06s358.1-248.51,358.92-249.64c-10.88-.41-168.79.13-168.79.13,0,0,116.92-303.48,120.46-313.3,49.61-.18,99.23,0,148.85-.09.66.13,39.74-100.11,55.09-139.56,2.61-6.71,4.54-11.68,5.48-14.08-26.9,0-242.59-.04-438.96-.04Z"/>
      <path id="_Compound_Path_2" data-name="&amp;lt;Compound Path&amp;gt; 2" class="cls-2" d="M739.26,29.6l-31.12-29.6H47.34C21.24,0,0,21.24,0,47.34v1237.22c0,26.1,21.24,47.34,47.34,47.34h917.31c26.1,0,47.34-21.24,47.34-47.34V289.05L739.26,29.6ZM714.65,314.23h259.11v970.33c0,4.85-4.26,9.11-9.11,9.11H47.34c-4.85,0-9.11-4.26-9.11-9.11V47.34c0-4.85,4.26-9.11,9.11-9.11h632.63v241.32c0,19.12,15.56,34.68,34.68,34.68ZM718.2,276V62.33l224.61,213.67h-224.61Z"/>
    </g>
  </g>
</svg>