<?xml version="1.0" encoding="UTF-8"?>
<svg id="Layer_2" data-name="Layer 2" xmlns="http://www.w3.org/2000/svg" viewBox="0 0 1011.98 1331.89">
  <defs>
    <style>
      .cls-1 {
        fill: #fcc23d;
      }

      .cls-1, .cls-2 {
        stroke-width: 0px;
      }

      .cls-2 {
        fill: #1d1d1b;
      }
    </style>
  </defs>
  <g id="TekkenDoc_Icon_2" data-name="TekkenDoc Icon 2">
    <g>
      <path class="cls-1" d="M958.37,1324.82H53.61c-22.97,0-41.76-18.79-41.76-41.76V62.77c0-22.97,18.79-41.76,41.76-41.76h649.79l296.73,282.28v979.77c0,22.97-18.79,41.76-41.76,41.76Z"/>
      <path id="_T_2" data-name="&amp;lt;T&amp;gt; 2" class="cls-2" d="M451.03,510.36h-12.78c-162.86,0-309.17.02-318.49.09l16.77,8.44,167.8,84.44,213.41.51-214.94,339.35,67.18.04s358.1-150.11,358.92-150.8c-10.88-.25-168.79.08-168.79.08,0,0,116.92-183.32,120.46-189.25,49.61-.11,99.23,0,148.85-.05.66.08,39.74-60.47,55.09-84.3,2.61-4.06,4.54-7.05,5.48-8.5-26.9,0-242.59-.02-438.96-.02Z"/>
      <path id="_Compound_Path_2" data-name="&amp;lt;Compound Path&amp;gt; 2" class="cls-2" d="M739.26,29.6l-31.12-29.6H47.34C21.24,0,0,21.24,0,47.34v1237.22c0,26.1,21.24,47.34,47.34,47.34h917.31c26.1,0,47.34-21.24,47.34-47.34V289.05L739.26,29.6ZM714.65,314.23h259.11v970.33c0,4.85-4.26,9.11-9.11,9.11H47.34c-4.85,0-9.11-4.26-9.11-9.11V47.34c0-4.85,4.26-9.11,9.11-9.11h632.63v241.32c0,19.12,15.56,34.68,34.68,34.68ZM718.2,276V62.33l224.61,213.67h-224.61Z"/>
    </g>
  </g>
</svg>