<?xml version="1.0" standalone="no"?>
<!DOCTYPE svg PUBLIC "-//W3C//DTD SVG 20010904//EN"
 "http://www.w3.org/TR/2001/REC-SVG-20010904/DTD/svg10.dtd">
<svg version="1.0" xmlns="http://www.w3.org/2000/svg"
 width="512.000000pt" height="512.000000pt" viewBox="0 0 512.000000 512.000000"
 preserveAspectRatio="xMidYMid meet">
<metadata>
Created by potrace 1.14, written by Peter Selinger 2001-2017
</metadata>
<g transform="translate(0.000000,512.000000) scale(0.100000,-0.100000)"
fill="#000000" stroke="none">
<path d="M775 5031 c-48 -22 -69 -44 -90 -94 -13 -32 -15 -292 -15 -2367 0
-2075 2 -2335 15 -2367 21 -50 42 -72 90 -94 38 -18 113 -19 1785 -19 1672 0
1747 1 1785 19 48 22 69 44 90 94 13 32 15 248 15 1921 l0 1884 -67 55 c-38
30 -297 265 -578 521 l-510 465 -1240 0 c-1182 1 -1242 0 -1280 -18z m2445
-527 c0 -296 4 -439 12 -466 13 -45 64 -98 110 -114 24 -9 166 -13 511 -13
l477 -1 0 -1832 c0 -1690 -1 -1833 -17 -1850 -15 -17 -83 -18 -1751 -18 -1601
0 -1737 1 -1754 17 -17 15 -18 101 -18 2341 0 2150 1 2327 17 2344 15 17 66
18 1215 18 l1198 0 0 -426z m574 -69 l439 -400 -428 -3 c-388 -2 -430 -1 -447
14 -17 16 -18 41 -18 406 0 214 4 388 8 386 5 -1 205 -183 446 -403z"/>
<path d="M1674 3409 c-16 -18 -19 -37 -19 -119 0 -152 -32 -140 387 -140 l348
0 0 -1058 0 -1059 21 -19 c18 -17 37 -19 144 -19 107 0 126 2 144 19 l21 19 0
1059 0 1058 349 0 350 0 20 26 c18 22 21 41 21 114 0 73 -3 92 -21 114 l-20
26 -863 0 -863 0 -19 -21z"/>
</g>
</svg>
